<svg id="visual" viewBox="0 0 900 600" width="900" height="600" xmlns="http://www.w3.org/2000/svg" xmlns:xlink="http://www.w3.org/1999/xlink" version="1.1"><rect x="0" y="0" width="900" height="600" fill="#001220"></rect><path d="M0 350L21.5 363C43 376 86 402 128.8 409.2C171.7 416.3 214.3 404.7 257.2 393.5C300 382.3 343 371.7 385.8 374.7C428.7 377.7 471.3 394.3 514.2 394.2C557 394 600 377 642.8 367.5C685.7 358 728.3 356 771.2 359C814 362 857 370 878.5 374L900 378L900 601L878.5 601C857 601 814 601 771.2 601C728.3 601 685.7 601 642.8 601C600 601 557 601 514.2 601C471.3 601 428.7 601 385.8 601C343 601 300 601 257.2 601C214.3 601 171.7 601 128.8 601C86 601 43 601 21.5 601L0 601Z" fill="#fa7268"></path><path d="M0 479L21.5 471.2C43 463.3 86 447.7 128.8 442.8C171.7 438 214.3 444 257.2 448.8C300 453.7 343 457.3 385.8 450.5C428.7 443.7 471.3 426.3 514.2 426.3C557 426.3 600 443.7 642.8 441.5C685.7 439.3 728.3 417.7 771.2 411.2C814 404.7 857 413.3 878.5 417.7L900 422L900 601L878.5 601C857 601 814 601 771.2 601C728.3 601 685.7 601 642.8 601C600 601 557 601 514.2 601C471.3 601 428.7 601 385.8 601C343 601 300 601 257.2 601C214.3 601 171.7 601 128.8 601C86 601 43 601 21.5 601L0 601Z" fill="#ef5f67"></path><path d="M0 454L21.5 454.3C43 454.7 86 455.3 128.8 452.5C171.7 449.7 214.3 443.3 257.2 443C300 442.7 343 448.3 385.8 452.5C428.7 456.7 471.3 459.3 514.2 468.8C557 478.3 600 494.7 642.8 491.7C685.7 488.7 728.3 466.3 771.2 457.3C814 448.3 857 452.7 878.5 454.8L900 457L900 601L878.5 601C857 601 814 601 771.2 601C728.3 601 685.7 601 642.8 601C600 601 557 601 514.2 601C471.3 601 428.7 601 385.8 601C343 601 300 601 257.2 601C214.3 601 171.7 601 128.8 601C86 601 43 601 21.5 601L0 601Z" fill="#e34c67"></path><path d="M0 485L21.5 493.7C43 502.3 86 519.7 128.8 522.5C171.7 525.3 214.3 513.7 257.2 506.5C300 499.3 343 496.7 385.8 497.5C428.7 498.3 471.3 502.7 514.2 507.3C557 512 600 517 642.8 521.2C685.7 525.3 728.3 528.7 771.2 522C814 515.3 857 498.7 878.5 490.3L900 482L900 601L878.5 601C857 601 814 601 771.2 601C728.3 601 685.7 601 642.8 601C600 601 557 601 514.2 601C471.3 601 428.7 601 385.8 601C343 601 300 601 257.2 601C214.3 601 171.7 601 128.8 601C86 601 43 601 21.5 601L0 601Z" fill="#d53867"></path><path d="M0 527L21.5 530.8C43 534.7 86 542.3 128.8 549.5C171.7 556.7 214.3 563.3 257.2 566.5C300 569.7 343 569.3 385.8 566.8C428.7 564.3 471.3 559.7 514.2 553.2C557 546.7 600 538.3 642.8 539.8C685.7 541.3 728.3 552.7 771.2 552.2C814 551.7 857 539.3 878.5 533.2L900 527L900 601L878.5 601C857 601 814 601 771.2 601C728.3 601 685.7 601 642.8 601C600 601 557 601 514.2 601C471.3 601 428.7 601 385.8 601C343 601 300 601 257.2 601C214.3 601 171.7 601 128.8 601C86 601 43 601 21.5 601L0 601Z" fill="#c62368"></path></svg>